<svg id="Car_Tow_logo" data-name="Car Tow logo" xmlns="http://www.w3.org/2000/svg" xmlns:xlink="http://www.w3.org/1999/xlink" width="48.698" height="36.945" viewBox="0 0 48.698 36.945">
  <defs>
    <radialGradient id="radial-gradient" cx="0.5" cy="0.5" r="0.592" gradientUnits="objectBoundingBox">
      <stop offset="0" stop-color="#3dc43d"/>
      <stop offset="1" stop-color="#126312"/>
    </radialGradient>
  </defs>
  <path id="Path_20145" data-name="Path 20145" d="M57.589,223.783s-2.5-11.839-14.84-9.506-11.505,21.178-.584,23.513,14.09-5.415,14.09-5.415l3.588,5S49.3,250.886,34.662,240.291s-4.419-33.433,11.757-32.849,19.591,19.009,17.257,21.677Z" transform="translate(-27.608 -207.431)" fill="url(#radial-gradient)"/>
  <path id="Path_20146" data-name="Path 20146" d="M199.364,160.072,174.186,134.56H164.64v2.751h1.376v2.5h1.5v3.668H169.6v-3.835h1.376v-2.293h1.667l18.342,22.719Z" transform="translate(-150.666 -123.127)" fill="url(#radial-gradient)"/>
  <path id="Path_20147" data-name="Path 20147" d="M206.338,435.68q-.036.034-.018.061c.011.018.035.026.071.026a2.734,2.734,0,0,1,2.549,1.766,5.411,5.411,0,0,1,.349,2.047,5.054,5.054,0,0,1-.262,1.7,3.046,3.046,0,0,1-1.181,1.614,3.6,3.6,0,0,1-2.055.569,3.462,3.462,0,0,1-2.1-.639,3.24,3.24,0,0,1-1.207-1.723,5.169,5.169,0,0,1-.192-1.329.155.155,0,0,1,.175-.175h.891a.155.155,0,0,1,.175.175,7.425,7.425,0,0,0,.127.947,2.193,2.193,0,0,0,.743,1.216,2.109,2.109,0,0,0,1.372.446,1.95,1.95,0,0,0,2.047-1.4,4.224,4.224,0,0,0,.211-1.434,4.452,4.452,0,0,0-.28-1.714,1.992,1.992,0,0,0-1.977-1.259c-.174,0-.35-.415-.606-.286-.048.023-.115.105-.137.105-.048,0-.122.015-.156-.043l-.425-.248a.178.178,0,0,1,.017-.245" transform="translate(-187.449 -416.286)" fill="url(#radial-gradient)"/>
</svg>
