<svg xmlns="http://www.w3.org/2000/svg" width="23" height="23" viewBox="0 0 23 23">
  <g id="Block" transform="translate(-1247 -363)">
    <rect id="Rectangle_1584" data-name="Rectangle 1584" width="23" height="23" rx="5" transform="translate(1247 363)" fill="#3f290e"/>
    <g id="block-2" data-name="block" transform="translate(1252.109 368.109)">
      <g id="Group_19609" data-name="Group 19609">
        <path id="Path_21074" data-name="Path 21074" d="M6.391,0a6.391,6.391,0,1,0,6.391,6.391A6.389,6.389,0,0,0,6.391,0ZM1.278,6.391A5.107,5.107,0,0,1,9.523,2.355L2.355,9.523A5.094,5.094,0,0,1,1.278,6.391ZM6.391,11.5a5.094,5.094,0,0,1-3.132-1.077l7.167-7.167A5.107,5.107,0,0,1,6.391,11.5Z" fill="#fff"/>
      </g>
    </g>
  </g>
</svg>
