<svg xmlns="http://www.w3.org/2000/svg" width="17.112" height="17.112" viewBox="0 0 17.112 17.112">
  <g id="edit" transform="translate(-217.889 -284.365)">
    <circle id="Ellipse_188" data-name="Ellipse 188" cx="8.556" cy="8.556" r="8.556" transform="translate(217.889 284.365)" fill="#048808"/>
    <path id="Icon_awesome-edit" data-name="Icon awesome-edit" d="M10.23,3.4a.191.191,0,0,1,0,.27L5.959,7.936l-1.815.2a.38.38,0,0,1-.42-.42l.2-1.815L8.2,1.632Zm1.4-2.212L10.68.23A.765.765,0,0,0,9.6.23L8.908.922a.191.191,0,0,0,0,.27l1.764,1.764a.191.191,0,0,0,.27,0l.692-.692a.765.765,0,0,0,0-1.079Z" transform="translate(218.655 288.848)" fill="#fff"/>
  </g>
</svg>
