<svg xmlns="http://www.w3.org/2000/svg" width="23" height="23" viewBox="0 0 23 23">
  <g id="Edit" transform="translate(-1219 -363)">
    <rect id="Rectangle_1583" data-name="Rectangle 1583" width="23" height="23" rx="5" transform="translate(1219 363)" fill="#048808"/>
    <path id="Icon_awesome-edit" data-name="Icon awesome-edit" d="M12.646,4.654a.262.262,0,0,1,0,.37L6.79,10.881,4.3,11.157a.522.522,0,0,1-.577-.577L4,8.092,9.858,2.235Zm1.925-3.033L13.263.313a1.049,1.049,0,0,0-1.48,0l-.949.949a.262.262,0,0,0,0,.37l2.419,2.419a.262.262,0,0,0,.37,0l.949-.949a1.049,1.049,0,0,0,0-1.48Z" transform="translate(1222.203 368.696)" fill="#fff"/>
  </g>
</svg>
