<svg xmlns="http://www.w3.org/2000/svg" width="80" height="80" viewBox="0 0 80 80">
  <g id="icon_upload_add_load" transform="translate(-28 -1041)">
    <g id="Group_10662" data-name="Group 10662" transform="translate(-2.327 775)">
      <g id="Component_1191_6" data-name="Component 1191 – 6" transform="translate(30.327 266)">
        <g id="Group_10466" data-name="Group 10466">
          <g id="Rectangle_219" data-name="Rectangle 219" fill="#fff" stroke="#c1bfbf" stroke-width="1" stroke-dasharray="5">
            <rect width="80" height="80" rx="10" stroke="none"/>
            <rect x="0.5" y="0.5" width="79" height="79" rx="9.5" fill="none"/>
          </g>
        </g>
      </g>
    </g>
    <g id="icon_upload_image_add_load" transform="translate(60 1073)">
      <g id="Path_90" data-name="Path 90" fill="#279527">
        <path d="M 7.593165397644043 15.12022304534912 C 3.681975364685059 15.12022304534912 0.4999954104423523 11.93824291229248 0.4999954104423523 8.027063369750977 L 0.4999954104423523 7.593163013458252 C 0.4999954104423523 3.68198299407959 3.681975364685059 0.5000029802322388 7.593165397644043 0.5000029802322388 C 11.50435543060303 0.5000029802322388 14.68633556365967 3.68198299407959 14.68633556365967 7.593163013458252 L 14.68633556365967 8.027063369750977 C 14.68633556365967 11.93824291229248 11.50435543060303 15.12022304534912 7.593165397644043 15.12022304534912 Z" stroke="none"/>
        <path d="M 7.593165397644043 1.000002861022949 C 3.957674980163574 1.000002861022949 0.999995231628418 3.957682609558105 0.999995231628418 7.593162536621094 L 0.999995231628418 8.027063369750977 C 0.999995231628418 11.66254329681396 3.957674980163574 14.62022304534912 7.593165397644043 14.62022304534912 C 11.2286548614502 14.62022304534912 14.18633556365967 11.66254329681396 14.18633556365967 8.027063369750977 L 14.18633556365967 7.593162536621094 C 14.18633556365967 3.957682609558105 11.2286548614502 1.000002861022949 7.593165397644043 1.000002861022949 M 7.593165397644043 2.86102294921875e-06 C 11.78675556182861 2.86102294921875e-06 15.18633556365967 3.39957332611084 15.18633556365967 7.593162536621094 L 15.18633556365967 8.027063369750977 C 15.18633556365967 12.22065353393555 11.78675556182861 15.62022304534912 7.593165397644043 15.62022304534912 C 3.399575233459473 15.62022304534912 -4.76837158203125e-06 12.22065353393555 -4.76837158203125e-06 8.027063369750977 L -4.76837158203125e-06 7.593162536621094 C -4.76837158203125e-06 3.39957332611084 3.399575233459473 2.86102294921875e-06 7.593165397644043 2.86102294921875e-06 Z" stroke="none" fill="#279527"/>
      </g>
      <g id="Group_1212" data-name="Group 1212" transform="translate(7.536 4.171) rotate(45)">
        <path id="Path_11" data-name="Path 11" d="M2.933,2.566h0A.365.365,0,0,0,2.821,2.3h0L.621.1h0A.366.366,0,1,0,.128.645L2.049,2.565.1,4.511h0a.367.367,0,0,0,.518.518h0l2.2-2.2h0a.365.365,0,0,0,.112-.264Z" transform="translate(0 0)" fill="#fff" stroke="#fff" stroke-width="0.3"/>
        <path id="Path_89" data-name="Path 89" d="M0,2.566H0A.365.365,0,0,1,.112,2.3h0L2.312.1h0a.366.366,0,1,1,.492.543L.884,2.565,2.83,4.511h0a.367.367,0,0,1-.518.518h0l-2.2-2.2h0A.365.365,0,0,1,0,2.566Z" transform="translate(2.228 0)" fill="#fff" stroke="#fff" stroke-width="0.3"/>
      </g>
    </g>
  </g>
</svg>
