<svg xmlns="http://www.w3.org/2000/svg" width="43.363" height="48.993" viewBox="0 0 43.363 48.993">
  <g id="User" transform="translate(-8.562 -25.103)">
    <g id="Group_18330" data-name="Group 18330" transform="translate(17.984 26.353)">
      <path id="Path_19162" data-name="Path 19162" d="M133.259,0a12.259,12.259,0,1,0,12.259,12.259A12.273,12.273,0,0,0,133.259,0Z" transform="translate(-121)" fill="none" stroke="#134813" stroke-width="2.5"/>
    </g>
    <path id="Path_21058" data-name="Path 21058" d="M66.684,305.284A17.476,17.476,0,0,0,54.155,300H48.707a17.476,17.476,0,0,0-12.528,5.284A17.865,17.865,0,0,0,31,317.889a1.362,1.362,0,0,0,1.362,1.362H70.5a1.362,1.362,0,0,0,1.362-1.362A17.865,17.865,0,0,0,66.684,305.284Z" transform="translate(-21.188 -246.404)" fill="none" stroke="#134813" stroke-width="2.5"/>
  </g>
</svg>
