<svg xmlns="http://www.w3.org/2000/svg" width="29.046" height="35.115" viewBox="0 0 29.046 35.115">
  <g id="Notification" transform="translate(0.65 0.65)" opacity="0.9">
    <path id="Icon_material-notifications-none" data-name="Icon material-notifications-none" d="M19.873,37.565c1.908,0,3.547-2.106,3.547-4.013H16.484C16.484,35.46,17.965,37.565,19.873,37.565Zm10.4-10.4V18.49c0-5.324-2.827-9.78-7.8-10.96V6.351a2.6,2.6,0,1,0-5.2,0V7.53c-4.96,1.179-7.8,5.619-7.8,10.96v8.671L6,30.629v1.734H33.746V30.629Zm-3.468,1.734H12.936V18.49c0-4.3,2.619-7.8,6.936-7.8s6.937,3.5,6.937,7.8Z" transform="translate(-6 -3.75)" fill="#2d2d2e" stroke="#fff" stroke-width="1.3"/>
    <g id="Path_19139" data-name="Path 19139" transform="translate(16.034 2.915)" fill="#279527">
      <path d="M 5.830657005310059 11.01131725311279 C 2.974026918411255 11.01131725311279 0.6499969959259033 8.687287330627441 0.6499969959259033 5.830657005310059 C 0.6499969959259033 2.974026918411255 2.974026918411255 0.6499969959259033 5.830657005310059 0.6499969959259033 C 8.687287330627441 0.6499969959259033 11.01131725311279 2.974026918411255 11.01131725311279 5.830657005310059 C 11.01131725311279 8.687287330627441 8.687287330627441 11.01131725311279 5.830657005310059 11.01131725311279 Z" stroke="none"/>
      <path d="M 5.830657005310059 1.299997329711914 C 3.332447052001953 1.299997329711914 1.299997329711914 3.332447052001953 1.299997329711914 5.830657005310059 C 1.299997329711914 8.328866958618164 3.332447052001953 10.3613166809082 5.830657005310059 10.3613166809082 C 8.328866958618164 10.3613166809082 10.3613166809082 8.328866958618164 10.3613166809082 5.830657005310059 C 10.3613166809082 3.332447052001953 8.328866958618164 1.299997329711914 5.830657005310059 1.299997329711914 M 5.830657005310059 -2.86102294921875e-06 C 9.050836563110352 -2.86102294921875e-06 11.66131687164307 2.610477447509766 11.66131687164307 5.830657005310059 C 11.66131687164307 9.050836563110352 9.050836563110352 11.66131687164307 5.830657005310059 11.66131687164307 C 2.610477447509766 11.66131687164307 -2.86102294921875e-06 9.050836563110352 -2.86102294921875e-06 5.830657005310059 C -2.86102294921875e-06 2.610477447509766 2.610477447509766 -2.86102294921875e-06 5.830657005310059 -2.86102294921875e-06 Z" stroke="none" fill="#fff"/>
    </g>
  </g>
</svg>
