<svg xmlns="http://www.w3.org/2000/svg" width="36" height="29" viewBox="0 0 36 29">
  <g id="Password" transform="translate(-8.028 -37)">
    <rect id="Rectangle_3023" data-name="Rectangle 3023" width="36" height="29" rx="5" transform="translate(8.028 37)" fill="#dbebdb"/>
    <g id="padlock" transform="translate(-51.721 31.593)">
      <g id="Group_19454" data-name="Group 19454" transform="translate(70.4 11)">
        <path id="Path_20961" data-name="Path 20961" d="M83.824,17.773h-.712v-1.84a5.386,5.386,0,0,0-10.733,0v1.84H71.67a1.223,1.223,0,0,0-1.27,1.167v8.711a1.223,1.223,0,0,0,1.27,1.167H83.828a1.223,1.223,0,0,0,1.27-1.167V18.937A1.229,1.229,0,0,0,83.824,17.773Zm-9.83-1.843a3.765,3.765,0,0,1,7.5,0v1.836h-7.5Zm9.482,11.4H72.015V19.256H83.48v8.075Z" transform="translate(-70.4 -11)" fill="#134813" stroke="#dbebdb" stroke-width="0.2"/>
        <path id="Path_20962" data-name="Path 20962" d="M236.342,339.7a.74.74,0,0,0,.742-.742v-1.912a.742.742,0,0,0-1.483,0v1.912A.742.742,0,0,0,236.342,339.7Z" transform="translate(-228.997 -324.473)" fill="#134813" stroke="#dbebdb" stroke-width="0.2"/>
      </g>
    </g>
  </g>
</svg>
