<svg xmlns="http://www.w3.org/2000/svg" width="21.134" height="21.134" viewBox="0 0 21.134 21.134">
  <g id="Query" transform="translate(-2523.619 190.837)">
    <g id="question-mark-on-a-circular-black-background_1_" data-name="question-mark-on-a-circular-black-background (1)" transform="translate(2529.62 -187.041)">
      <path id="Path_15392" data-name="Path 15392" d="M13.269,17.388a.407.407,0,0,1-.423.423H10.307a.407.407,0,0,1-.423-.423V14.848a.407.407,0,0,1,.423-.423h2.539a.407.407,0,0,1,.423.423Zm3.22-7.815a3.5,3.5,0,0,1-.37.8,3.064,3.064,0,0,1-.589.635,5.518,5.518,0,0,1-.608.463q-.224.139-.648.377a2.227,2.227,0,0,0-.72.655,1.258,1.258,0,0,0-.284.654.407.407,0,0,1-.423.423H10.307a.407.407,0,0,1-.423-.423V12.68a2.446,2.446,0,0,1,.694-1.66,4.529,4.529,0,0,1,1.527-1.144,2.676,2.676,0,0,0,.9-.6,1.185,1.185,0,0,0,.265-.807.963.963,0,0,0-.5-.78,2.11,2.11,0,0,0-2.268-.026A6.591,6.591,0,0,0,9.368,8.884a.39.39,0,0,1-.331.159.374.374,0,0,1-.251-.079L7.041,7.642a.378.378,0,0,1-.106-.555A5.4,5.4,0,0,1,11.841,4.27a5.151,5.151,0,0,1,4.08,2.076A3.551,3.551,0,0,1,16.655,8.5,3.355,3.355,0,0,1,16.489,9.572Z" transform="translate(-6.857 -4.27)" fill="#262626"/>
    </g>
    <path id="Path_19087" data-name="Path 19087" d="M18.784,5.014A10.025,10.025,0,0,0,15.121,1.35,9.847,9.847,0,0,0,10.067,0,9.847,9.847,0,0,0,5.014,1.35,10.022,10.022,0,0,0,1.35,5.014,9.847,9.847,0,0,0,0,10.067,9.849,9.849,0,0,0,1.35,15.12a10.025,10.025,0,0,0,3.664,3.664,9.848,9.848,0,0,0,5.053,1.35,9.848,9.848,0,0,0,5.053-1.35,10.022,10.022,0,0,0,3.664-3.664,9.849,9.849,0,0,0,1.35-5.053A9.85,9.85,0,0,0,18.784,5.014Z" transform="translate(2524.119 -190.337)" fill="none" stroke="#262626" stroke-width="1"/>
  </g>
</svg>
