<svg xmlns="http://www.w3.org/2000/svg" width="22.457" height="17.589" viewBox="0 0 22.457 17.589">
  <g id="Subscription" transform="translate(0.1 0.1)">
    <path id="Path_15401" data-name="Path 15401" d="M22.257.413A.435.435,0,0,0,21.822,0H.434A.435.435,0,0,0,0,.413C0,.42,0,.427,0,.435V16.954a.435.435,0,0,0,.435.435H21.822a.435.435,0,0,0,.435-.435V.435c0-.007,0-.015,0-.022ZM.869.865H21.388V2.87H.869ZM21.388,16.519H.869V3.74H21.388Zm0,0" stroke="#000" stroke-width="0.2"/>
    <path id="Path_15402" data-name="Path 15402" d="M84.529,34.425H81.392a.392.392,0,0,1,0-.784h3.137a.392.392,0,0,1,0,.784Zm0,0" transform="translate(-77.395 -32.322)" stroke="#000" stroke-width="0.2"/>
    <path id="Path_15403" data-name="Path 15403" d="M41.408,34.425a.392.392,0,0,1,0-.784h0a.392.392,0,0,1,0,.784Zm0,0" transform="translate(-39.408 -32.322)" stroke="#000" stroke-width="0.2"/>
    <path id="Path_15404" data-name="Path 15404" d="M63.342,240.863H60.048a.392.392,0,0,1,0-.784h3.293a.392.392,0,0,1,0,.784Zm0,0" transform="translate(-57.317 -229.588)" stroke="#000" stroke-width="0.2"/>
    <path id="Path_15405" data-name="Path 15405" d="M63.342,281.062H60.048a.392.392,0,0,1,0-.784h3.293a.392.392,0,0,1,0,.784Zm0,0" transform="translate(-57.317 -268.03)" stroke="#000" stroke-width="0.2"/>
    <path id="Path_15406" data-name="Path 15406" d="M63.342,321.26H60.048a.392.392,0,0,1,0-.784h3.293a.392.392,0,0,1,0,.784Zm0,0" transform="translate(-57.317 -306.206)" stroke="#000" stroke-width="0.2"/>
    <path id="Path_15407" data-name="Path 15407" d="M65.538,129.359a1.882,1.882,0,1,1,1.882-1.882A1.884,1.884,0,0,1,65.538,129.359Zm0-2.981a1.1,1.1,0,1,0,1.1,1.1A1.1,1.1,0,0,0,65.538,126.378Zm0,0" transform="translate(-61.16 -119.965)" stroke="#000" stroke-width="0.2"/>
    <path id="Path_15408" data-name="Path 15408" d="M207.686,240.863h-3.293a.392.392,0,0,1,0-.784h3.293a.392.392,0,0,1,0,.784Zm0,0" transform="translate(-194.91 -229.588)" stroke="#000" stroke-width="0.2"/>
    <path id="Path_15409" data-name="Path 15409" d="M207.686,281.062h-3.293a.392.392,0,0,1,0-.784h3.293a.392.392,0,0,1,0,.784Zm0,0" transform="translate(-194.91 -268.03)" stroke="#000" stroke-width="0.2"/>
    <path id="Path_15410" data-name="Path 15410" d="M207.686,321.26h-3.293a.392.392,0,0,1,0-.784h3.293a.392.392,0,0,1,0,.784Zm0,0" transform="translate(-194.91 -306.206)" stroke="#000" stroke-width="0.2"/>
    <path id="Path_15411" data-name="Path 15411" d="M209.882,129.359a1.882,1.882,0,1,1,1.882-1.882A1.884,1.884,0,0,1,209.882,129.359Zm0-2.981a1.1,1.1,0,1,0,1.1,1.1A1.1,1.1,0,0,0,209.882,126.378Zm0,0" transform="translate(-198.754 -119.965)" stroke="#000" stroke-width="0.2"/>
    <path id="Path_15412" data-name="Path 15412" d="M352.116,240.863h-3.293a.392.392,0,0,1,0-.784h3.293a.392.392,0,0,1,0,.784Zm0,0" transform="translate(-332.586 -229.588)" stroke="#000" stroke-width="0.2"/>
    <path id="Path_15413" data-name="Path 15413" d="M352.116,281.062h-3.293a.392.392,0,0,1,0-.784h3.293a.392.392,0,0,1,0,.784Zm0,0" transform="translate(-332.586 -268.03)" stroke="#000" stroke-width="0.2"/>
    <path id="Path_15414" data-name="Path 15414" d="M352.116,321.26h-3.293a.392.392,0,0,1,0-.784h3.293a.392.392,0,0,1,0,.784Zm0,0" transform="translate(-332.586 -306.206)" stroke="#000" stroke-width="0.2"/>
    <path id="Path_15415" data-name="Path 15415" d="M354.312,129.359a1.882,1.882,0,1,1,1.882-1.882A1.884,1.884,0,0,1,354.312,129.359Zm0-2.981a1.1,1.1,0,1,0,1.1,1.1A1.1,1.1,0,0,0,354.312,126.378Zm0,0" transform="translate(-336.429 -119.965)" stroke="#000" stroke-width="0.2"/>
  </g>
</svg>
