<svg xmlns="http://www.w3.org/2000/svg" width="52.748" height="52.736" viewBox="0 0 52.748 52.736">
  <g id="tow-truck" transform="translate(5.738 4.678)">
    <g id="Group_19643" data-name="Group 19643" transform="translate(-1 0.059)">
      <path id="Path_21077" data-name="Path 21077" d="M52.657,41.467c-.021-.058-2.093-5.832-3.341-10.491l-.166-.618L35.691,22.587,24.948,24.711l-4.761-2.749a7.21,7.21,0,0,0-9.947,9.674A3.606,3.606,0,1,1,6.7,27.36H8.242V17.645a5.151,5.151,0,0,0,0-9.828V.059H5.151V7.817a5.151,5.151,0,0,0,0,9.828v6.8a6.7,6.7,0,1,0,7.411,9.744c.131.088.264.173.4.253a6.188,6.188,0,0,0,5.947,7.84,6.219,6.219,0,0,0,1.61-.213,6.144,6.144,0,0,0,2.812-1.639l7.831,4.521A6.188,6.188,0,0,0,37.113,52.8a6.219,6.219,0,0,0,1.61-.213,6.141,6.141,0,0,0,2.886-1.716,7.639,7.639,0,0,0,2.7.492,7.766,7.766,0,0,0,2.012-.267,7.678,7.678,0,0,0,4.694-3.6l1.737-3.025V41.72ZM4.636,12.731a2.06,2.06,0,1,1,2.06,2.06A2.063,2.063,0,0,1,4.636,12.731ZM21.6,37.648a3.09,3.09,0,1,1-1.131-4.222A3.071,3.071,0,0,1,21.6,37.648ZM39.8,48.157a3.09,3.09,0,1,1-1.131-4.222A3.071,3.071,0,0,1,39.8,48.157Zm9.858-4.518h0l-1.324,2.307a4.638,4.638,0,0,1-5.213,2.161A6.181,6.181,0,0,0,32.712,42.28l-7.833-4.523a6.182,6.182,0,0,0-10.368-5.986,4.121,4.121,0,0,1,4.13-7.132l5.767,3.33,10.744-2.125L46.5,32.4c1.142,4.126,2.755,8.727,3.158,9.862v1.381Z" transform="translate(-4.738 -4.796)" fill="#134813"/>
    </g>
  </g>
</svg>
