<svg xmlns="http://www.w3.org/2000/svg" width="63.951" height="47.462" viewBox="0 0 63.951 47.462">
  <g id="truck" transform="translate(0 -66.008)">
    <g id="Group_19588" data-name="Group 19588" transform="translate(0 66.008)">
      <g id="Group_19587" data-name="Group 19587" transform="translate(0 0)">
        <path id="Path_21060" data-name="Path 21060" d="M58.821,84.184,57.013,80.57A3.727,3.727,0,0,0,53.662,78.5H43.215V69.755a3.751,3.751,0,0,0-3.747-3.747H3.747A3.751,3.751,0,0,0,0,69.755v32.474a3.751,3.751,0,0,0,3.747,3.747H7.494a7.463,7.463,0,0,0,1.914,5H1.249a1.249,1.249,0,0,0,0,2.5H62.7a1.249,1.249,0,0,0,0-2.5H59.536a7.463,7.463,0,0,0,1.914-5c0-.071,0-.142-.005-.213a3.753,3.753,0,0,0,2.5-3.534v-6.9C63.949,93.867,64.237,95.228,58.821,84.184Zm-1.889,1.808,3.747,7.494H48.211V85.992ZM2.5,95.984H5v2.5H2.5Zm12.49,14.988a5,5,0,0,1-5-5,4.931,4.931,0,0,1,.1-1,5,5,0,0,1,9.79,0v.005a4.911,4.911,0,0,1,.1,1A5,5,0,0,1,14.988,110.972Zm0-12.49a7.52,7.52,0,0,0-7.066,5H3.747A1.25,1.25,0,0,1,2.5,102.229V100.98H6.245a1.249,1.249,0,0,0,1.249-1.249v-5a1.249,1.249,0,0,0-1.249-1.249H2.5V69.755a1.25,1.25,0,0,1,1.249-1.249H39.468a1.25,1.25,0,0,1,1.249,1.249v33.723H22.053A7.52,7.52,0,0,0,14.988,98.482Zm5.58,12.49a7.463,7.463,0,0,0,1.914-5H46.462a7.463,7.463,0,0,0,1.914,5Zm33.389,0a5,5,0,0,1-5-5,4.931,4.931,0,0,1,.1-1,5,5,0,0,1,9.79,0v.005a4.911,4.911,0,0,1,.1,1A5,5,0,0,1,53.957,110.972Zm7.494-8.743a1.247,1.247,0,0,1-.518,1.01,7.494,7.494,0,0,0-14.042.239H43.215V81H53.662a1.243,1.243,0,0,1,1.117.691l.9,1.807h-8.72a1.249,1.249,0,0,0-1.249,1.249v9.992a1.249,1.249,0,0,0,1.249,1.249H61.451Z" transform="translate(0 -66.008)" fill="#134813"/>
      </g>
    </g>
    <g id="Group_19590" data-name="Group 19590" transform="translate(17.486 73.502)">
      <g id="Group_19589" data-name="Group 19589" transform="translate(0 0)">
        <path id="Path_21061" data-name="Path 21061" d="M156.98,126.006H141.243a1.249,1.249,0,0,0,0,2.5H156.98a1.249,1.249,0,1,0,0-2.5Z" transform="translate(-139.994 -126.006)" fill="#2d2d2e"/>
      </g>
    </g>
    <g id="Group_19592" data-name="Group 19592" transform="translate(22.482 78.498)">
      <g id="Group_19591" data-name="Group 19591" transform="translate(0 0)">
        <path id="Path_21062" data-name="Path 21062" d="M191.982,166H181.241a1.249,1.249,0,1,0,0,2.5h10.741a1.249,1.249,0,1,0,0-2.5Z" transform="translate(-179.992 -166.004)" fill="#2d2d2e"/>
      </g>
    </g>
    <g id="Group_19594" data-name="Group 19594" transform="translate(51.459 103.478)">
      <g id="Group_19593" data-name="Group 19593">
        <path id="Path_21063" data-name="Path 21063" d="M414.481,366a2.5,2.5,0,1,0,2.5,2.5A2.5,2.5,0,0,0,414.481,366Z" transform="translate(-411.983 -365.996)" fill="#2d2d2e"/>
      </g>
    </g>
    <g id="Group_19596" data-name="Group 19596" transform="translate(12.49 103.478)">
      <g id="Group_19595" data-name="Group 19595">
        <path id="Path_21064" data-name="Path 21064" d="M102.494,366a2.5,2.5,0,1,0,2.5,2.5A2.5,2.5,0,0,0,102.494,366Z" transform="translate(-99.996 -365.996)" fill="#2d2d2e"/>
      </g>
    </g>
  </g>
</svg>
