<svg xmlns="http://www.w3.org/2000/svg" width="30" height="22.265" viewBox="0 0 30 22.265">
  <path id="Truckers" d="M27.594,74.535l-.848-1.7a1.748,1.748,0,0,0-1.572-.972h-4.9v-4.1a1.76,1.76,0,0,0-1.758-1.758H1.758A1.76,1.76,0,0,0,0,67.766V83a1.76,1.76,0,0,0,1.758,1.758H3.516a3.5,3.5,0,0,0,.9,2.344H.586a.586.586,0,1,0,0,1.172H29.413a.586.586,0,1,0,0-1.172H27.929a3.5,3.5,0,0,0,.9-2.344c0-.033,0-.067,0-.1A1.76,1.76,0,0,0,30,83V79.761C30,79.077,30.135,79.715,27.594,74.535Zm-.886.848L28.465,78.9H22.617V75.383ZM1.172,80.07H2.344v1.172H1.172ZM7.031,87.1a2.346,2.346,0,0,1-2.344-2.344,2.313,2.313,0,0,1,.047-.469,2.344,2.344,0,0,1,4.592,0v0a2.3,2.3,0,0,1,.047.467A2.346,2.346,0,0,1,7.031,87.1Zm0-5.859a3.528,3.528,0,0,0-3.315,2.344H1.758A.587.587,0,0,1,1.172,83v-.586H2.93a.586.586,0,0,0,.586-.586V79.484A.586.586,0,0,0,2.93,78.9H1.172V67.766a.587.587,0,0,1,.586-.586H18.515a.587.587,0,0,1,.586.586v15.82H10.345A3.528,3.528,0,0,0,7.031,81.242ZM9.649,87.1a3.5,3.5,0,0,0,.9-2.344H21.8a3.5,3.5,0,0,0,.9,2.344Zm15.663,0a2.346,2.346,0,0,1-2.344-2.344,2.313,2.313,0,0,1,.047-.469,2.344,2.344,0,0,1,4.592,0v0a2.3,2.3,0,0,1,.047.467A2.346,2.346,0,0,1,25.312,87.1ZM28.827,83a.585.585,0,0,1-.243.474A3.516,3.516,0,0,0,22,83.586H20.273V73.039h4.9a.583.583,0,0,1,.524.324l.424.848H22.031a.586.586,0,0,0-.586.586v4.687a.586.586,0,0,0,.586.586h6.8Z" transform="translate(0 -66.008)" fill="#2d2d2e"/>
</svg>
