<svg xmlns="http://www.w3.org/2000/svg" width="18.343" height="20.664" viewBox="0 0 18.343 20.664">
  <g id="user" transform="translate(0.75 0.75)">
    <g id="Group_16382" data-name="Group 16382" transform="translate(3.369)">
      <g id="Group_16381" data-name="Group 16381">
        <path id="Path_14093" data-name="Path 14093" d="M126.053,0a5.053,5.053,0,1,0,5.053,5.053A5.059,5.059,0,0,0,126.053,0Z" transform="translate(-121)" fill="none" stroke="#262626" stroke-width="1.5"/>
      </g>
    </g>
    <g id="Group_16384" data-name="Group 16384" transform="translate(0 11.229)">
      <g id="Group_16383" data-name="Group 16383">
        <path id="Path_14094" data-name="Path 14094" d="M45.709,302.178A7.2,7.2,0,0,0,40.545,300H38.3a7.2,7.2,0,0,0-5.164,2.178,7.364,7.364,0,0,0-2.135,5.2.561.561,0,0,0,.561.561h15.72a.561.561,0,0,0,.561-.561A7.364,7.364,0,0,0,45.709,302.178Z" transform="translate(-31 -300)" fill="none" stroke="#262626" stroke-width="1.5"/>
      </g>
    </g>
  </g>
</svg>
