<svg xmlns="http://www.w3.org/2000/svg" width="23" height="23" viewBox="0 0 23 23">
  <g id="view" transform="translate(-1219 -363)">
    <rect id="Rectangle_1583" data-name="Rectangle 1583" width="23" height="23" rx="5" transform="translate(1219 363)" fill="#ffb627"/>
    <path id="Path_19088" data-name="Path 19088" d="M7.726,98.725a9.639,9.639,0,0,0-7.6,4.239.612.612,0,0,0,0,.73,9.634,9.634,0,0,0,7.6,4.242,9.639,9.639,0,0,0,7.6-4.239.612.612,0,0,0,0-.73A9.634,9.634,0,0,0,7.726,98.725Zm.212,7.848a3.25,3.25,0,1,1,3.031-3.031A3.252,3.252,0,0,1,7.937,106.573Zm-.1-1.5a1.75,1.75,0,1,1,1.634-1.634A1.747,1.747,0,0,1,7.839,105.075Z" transform="translate(1223 271.275)" fill="#fff"/>
  </g>
</svg>
